<svg width="200" height="200" viewBox="0 0 200 200" fill="none" xmlns="http://www.w3.org/2000/svg">
<rect width="200" height="200" rx="50" fill="#7AEF1C"/>
<path d="M58.4183 58.6116L65.8009 65.3568V65.3568L58.4183 58.6116ZM88.9019 99.4341L98.2321 103.032L105.428 84.3717L96.0981 80.7736L92.5 90.1039L88.9019 99.4341ZM124.273 67.9237C129.416 69.9367 135.217 67.3994 137.23 62.2564C139.243 57.1135 136.706 51.3125 131.563 49.2995L127.918 58.6116L124.273 67.9237ZM58.4183 58.6116L51.0358 51.8664C46.487 56.845 43.6394 63.3587 45.6398 70.5998C47.3714 76.8685 52.1773 81.2429 56.3085 84.176C64.7032 90.1361 77.6896 95.1102 88.9019 99.4341L92.5 90.1039L96.0981 80.7736C83.9618 76.0934 73.7663 72.0426 67.8868 67.8682C64.881 65.7341 64.7767 64.7638 64.9177 65.2744C65.3274 66.7574 64.2087 67.0994 65.8009 65.3568L58.4183 58.6116ZM127.918 58.6116C131.563 49.2995 131.561 49.2986 131.558 49.2976C131.557 49.2972 131.555 49.2961 131.552 49.2953C131.548 49.2936 131.543 49.2916 131.537 49.2893C131.525 49.2846 131.51 49.2788 131.492 49.2718C131.456 49.2578 131.407 49.2391 131.347 49.2159C131.226 49.1695 131.056 49.1052 130.841 49.0248C130.411 48.8641 129.798 48.6389 129.023 48.3642C127.474 47.8152 125.269 47.0656 122.575 46.2364C117.215 44.5862 109.789 42.5803 101.671 41.2326C93.6293 39.8975 84.4498 39.1288 75.7376 40.2385C67.0689 41.3427 57.8072 44.4552 51.0358 51.8664L58.4183 58.6116L65.8009 65.3568C68.1832 62.7493 72.1858 60.8525 78.2647 60.0782C84.3001 59.3094 91.3514 59.793 98.3958 60.9626C105.365 62.1196 111.881 63.8706 116.691 65.3513C119.083 66.0874 121.02 66.7468 122.342 67.2153C123.003 67.4494 123.508 67.6351 123.837 67.7581C124.001 67.8196 124.121 67.8653 124.195 67.8936C124.232 67.9077 124.257 67.9174 124.27 67.9225C124.277 67.925 124.28 67.9264 124.281 67.9266C124.281 67.9267 124.281 67.9265 124.28 67.926C124.279 67.9258 124.277 67.9252 124.277 67.9251C124.275 67.9244 124.273 67.9237 127.918 58.6116Z" fill="black"/>
<path d="M140.918 139.112L148.301 145.857V145.857L140.918 139.112ZM75.0632 129.799C69.9202 127.786 64.1192 130.324 62.1062 135.467C60.0932 140.61 62.6305 146.411 67.7735 148.424L71.4183 139.112L75.0632 129.799ZM105.5 107.104L101.902 116.434C114.3 121.215 124.913 125.337 131.142 129.639C134.342 131.85 134.557 132.912 134.43 132.486C133.984 130.995 135.141 130.609 133.536 132.366L140.918 139.112L148.301 145.857C152.953 140.765 155.787 134.1 153.591 126.757C151.714 120.478 146.754 116.116 142.509 113.184C133.848 107.201 120.494 102.168 109.098 97.7736L105.5 107.104ZM140.918 139.112L133.536 132.366C131.153 134.974 127.151 136.871 121.072 137.645C115.036 138.414 107.985 137.93 100.941 136.761C93.9718 135.604 87.4552 133.853 82.6453 132.372C80.2537 131.636 78.3163 130.976 76.9942 130.508C76.3338 130.274 75.829 130.088 75.5 129.965C75.3355 129.904 75.2152 129.858 75.1415 129.83C75.1046 129.815 75.0795 129.806 75.0663 129.801C75.0597 129.798 75.0562 129.797 75.0556 129.797C75.0554 129.796 75.0558 129.797 75.0571 129.797C75.0577 129.797 75.0593 129.798 75.0596 129.798C75.0613 129.799 75.0632 129.799 71.4183 139.112C67.7735 148.424 67.7758 148.425 67.7782 148.426C67.7793 148.426 67.782 148.427 67.7842 148.428C67.7886 148.43 67.7937 148.432 67.7997 148.434C67.8116 148.439 67.8266 148.444 67.8447 148.451C67.8809 148.465 67.9294 148.484 67.99 148.507C68.1111 148.554 68.2805 148.618 68.4955 148.698C68.9253 148.859 69.5381 149.084 70.3133 149.359C71.8623 149.908 74.0673 150.657 76.7612 151.487C82.1219 153.137 89.5477 155.143 97.6652 156.491C105.707 157.826 114.887 158.594 123.599 157.485C132.268 156.38 141.529 153.268 148.301 145.857L140.918 139.112Z" fill="black"/>
<line x1="135.156" y1="19.5434" x2="71.6434" y2="182.951" stroke="url(#paint0_linear_1_2)" stroke-width="3"/>
<defs>
<linearGradient id="paint0_linear_1_2" x1="69.7793" y1="182.227" x2="133.292" y2="18.8189" gradientUnits="userSpaceOnUse">
<stop stop-opacity="0"/>
<stop offset="0.5"/>
<stop offset="1" stop-opacity="0"/>
</linearGradient>
</defs>
</svg>
